<mxfile host="Electron" agent="Mozilla/5.0 (Windows NT 10.0; Win64; x64) AppleWebKit/537.36 (KHTML, like Gecko) draw.io/28.2.7 Chrome/138.0.7204.251 Electron/37.7.1 Safari/537.36" version="28.2.7">
  <diagram name="Page-1" id="BDokYCyjuOf62IB61SW6">
    <mxGraphModel dx="679" dy="1557" grid="1" gridSize="10" guides="1" tooltips="1" connect="1" arrows="1" fold="1" page="1" pageScale="1" pageWidth="850" pageHeight="1100" math="0" shadow="0">
      <root>
        <mxCell id="0" />
        <mxCell id="1" parent="0" />
        <mxCell id="ZybSccJEuu_POBzUD3_6-1" value="" style="rounded=1;whiteSpace=wrap;html=1;fillColor=none;" vertex="1" parent="1">
          <mxGeometry x="130" y="-70" width="120" height="430" as="geometry" />
        </mxCell>
        <mxCell id="ZybSccJEuu_POBzUD3_6-45" style="edgeStyle=orthogonalEdgeStyle;rounded=0;orthogonalLoop=1;jettySize=auto;html=1;exitX=0;exitY=0.5;exitDx=0;exitDy=0;" edge="1" parent="1" source="ZybSccJEuu_POBzUD3_6-2">
          <mxGeometry relative="1" as="geometry">
            <mxPoint x="80" y="-10" as="targetPoint" />
          </mxGeometry>
        </mxCell>
        <mxCell id="ZybSccJEuu_POBzUD3_6-2" value="customer_key" style="rounded=1;whiteSpace=wrap;html=1;fillColor=#fff2cc;strokeColor=#d6b656;" vertex="1" parent="1">
          <mxGeometry x="130" y="-20" width="120" height="20" as="geometry" />
        </mxCell>
        <mxCell id="ZybSccJEuu_POBzUD3_6-3" value="customer_id" style="rounded=1;whiteSpace=wrap;html=1;fillColor=#fff2cc;strokeColor=#d6b656;" vertex="1" parent="1">
          <mxGeometry x="130" y="40" width="120" height="20" as="geometry" />
        </mxCell>
        <mxCell id="ZybSccJEuu_POBzUD3_6-4" value="customer_number" style="rounded=1;whiteSpace=wrap;html=1;fillColor=#fff2cc;strokeColor=#d6b656;" vertex="1" parent="1">
          <mxGeometry x="130" y="80" width="120" height="20" as="geometry" />
        </mxCell>
        <mxCell id="ZybSccJEuu_POBzUD3_6-5" value="first_name" style="rounded=1;whiteSpace=wrap;html=1;fillColor=#fff2cc;strokeColor=#d6b656;" vertex="1" parent="1">
          <mxGeometry x="130" y="120" width="120" height="20" as="geometry" />
        </mxCell>
        <mxCell id="ZybSccJEuu_POBzUD3_6-6" value="last_name" style="rounded=1;whiteSpace=wrap;html=1;fillColor=#fff2cc;strokeColor=#d6b656;" vertex="1" parent="1">
          <mxGeometry x="130" y="160" width="120" height="20" as="geometry" />
        </mxCell>
        <mxCell id="ZybSccJEuu_POBzUD3_6-7" value="marital_status" style="rounded=1;whiteSpace=wrap;html=1;fillColor=#fff2cc;strokeColor=#d6b656;" vertex="1" parent="1">
          <mxGeometry x="130" y="200" width="120" height="20" as="geometry" />
        </mxCell>
        <mxCell id="ZybSccJEuu_POBzUD3_6-8" value="country" style="rounded=1;whiteSpace=wrap;html=1;fillColor=#fff2cc;strokeColor=#d6b656;" vertex="1" parent="1">
          <mxGeometry x="130" y="240" width="120" height="20" as="geometry" />
        </mxCell>
        <mxCell id="ZybSccJEuu_POBzUD3_6-9" value="birthdate" style="rounded=1;whiteSpace=wrap;html=1;fillColor=#fff2cc;strokeColor=#d6b656;" vertex="1" parent="1">
          <mxGeometry x="130" y="280" width="120" height="20" as="geometry" />
        </mxCell>
        <mxCell id="ZybSccJEuu_POBzUD3_6-10" value="country" style="rounded=1;whiteSpace=wrap;html=1;fillColor=#fff2cc;strokeColor=#d6b656;" vertex="1" parent="1">
          <mxGeometry x="130" y="320" width="120" height="20" as="geometry" />
        </mxCell>
        <mxCell id="ZybSccJEuu_POBzUD3_6-12" value="gold.dim_customers" style="rounded=1;whiteSpace=wrap;html=1;fillColor=#f8cecc;strokeColor=#b85450;" vertex="1" parent="1">
          <mxGeometry x="130" y="-90" width="120" height="30" as="geometry" />
        </mxCell>
        <mxCell id="ZybSccJEuu_POBzUD3_6-13" value="" style="rounded=1;whiteSpace=wrap;html=1;fillColor=none;" vertex="1" parent="1">
          <mxGeometry x="500" y="-70" width="120" height="430" as="geometry" />
        </mxCell>
        <mxCell id="ZybSccJEuu_POBzUD3_6-14" value="customer_key" style="rounded=1;whiteSpace=wrap;html=1;fillColor=#fff2cc;strokeColor=#d6b656;" vertex="1" parent="1">
          <mxGeometry x="500" y="-20" width="120" height="20" as="geometry" />
        </mxCell>
        <mxCell id="ZybSccJEuu_POBzUD3_6-15" value="product_id" style="rounded=1;whiteSpace=wrap;html=1;fillColor=#fff2cc;strokeColor=#d6b656;" vertex="1" parent="1">
          <mxGeometry x="500" y="40" width="120" height="20" as="geometry" />
        </mxCell>
        <mxCell id="ZybSccJEuu_POBzUD3_6-16" value="product_name" style="rounded=1;whiteSpace=wrap;html=1;fillColor=#fff2cc;strokeColor=#d6b656;" vertex="1" parent="1">
          <mxGeometry x="500" y="80" width="120" height="20" as="geometry" />
        </mxCell>
        <mxCell id="ZybSccJEuu_POBzUD3_6-17" value="category_id" style="rounded=1;whiteSpace=wrap;html=1;fillColor=#fff2cc;strokeColor=#d6b656;" vertex="1" parent="1">
          <mxGeometry x="500" y="120" width="120" height="20" as="geometry" />
        </mxCell>
        <mxCell id="ZybSccJEuu_POBzUD3_6-18" value="sybcategory" style="rounded=1;whiteSpace=wrap;html=1;fillColor=#fff2cc;strokeColor=#d6b656;" vertex="1" parent="1">
          <mxGeometry x="500" y="160" width="120" height="20" as="geometry" />
        </mxCell>
        <mxCell id="ZybSccJEuu_POBzUD3_6-19" value="maintenance" style="rounded=1;whiteSpace=wrap;html=1;fillColor=#fff2cc;strokeColor=#d6b656;" vertex="1" parent="1">
          <mxGeometry x="500" y="200" width="120" height="20" as="geometry" />
        </mxCell>
        <mxCell id="ZybSccJEuu_POBzUD3_6-20" value="cost" style="rounded=1;whiteSpace=wrap;html=1;fillColor=#fff2cc;strokeColor=#d6b656;" vertex="1" parent="1">
          <mxGeometry x="500" y="240" width="120" height="20" as="geometry" />
        </mxCell>
        <mxCell id="ZybSccJEuu_POBzUD3_6-21" value="product_lines" style="rounded=1;whiteSpace=wrap;html=1;fillColor=#fff2cc;strokeColor=#d6b656;" vertex="1" parent="1">
          <mxGeometry x="500" y="280" width="120" height="20" as="geometry" />
        </mxCell>
        <mxCell id="ZybSccJEuu_POBzUD3_6-22" value="start_date" style="rounded=1;whiteSpace=wrap;html=1;fillColor=#fff2cc;strokeColor=#d6b656;" vertex="1" parent="1">
          <mxGeometry x="500" y="320" width="120" height="20" as="geometry" />
        </mxCell>
        <mxCell id="ZybSccJEuu_POBzUD3_6-23" value="gold_dim products" style="rounded=1;whiteSpace=wrap;html=1;fillColor=#f8cecc;strokeColor=#b85450;" vertex="1" parent="1">
          <mxGeometry x="500" y="-90" width="120" height="30" as="geometry" />
        </mxCell>
        <mxCell id="ZybSccJEuu_POBzUD3_6-34" value="" style="rounded=1;whiteSpace=wrap;html=1;fillColor=none;strokeColor=default;" vertex="1" parent="1">
          <mxGeometry x="320" y="-60" width="120" height="430" as="geometry" />
        </mxCell>
        <mxCell id="ZybSccJEuu_POBzUD3_6-35" value="order_number" style="rounded=1;whiteSpace=wrap;html=1;fillColor=none;strokeColor=default;" vertex="1" parent="1">
          <mxGeometry x="320" y="-10" width="120" height="20" as="geometry" />
        </mxCell>
        <mxCell id="ZybSccJEuu_POBzUD3_6-36" value="product_key" style="rounded=1;whiteSpace=wrap;html=1;fillColor=none;strokeColor=default;" vertex="1" parent="1">
          <mxGeometry x="320" y="50" width="120" height="20" as="geometry" />
        </mxCell>
        <mxCell id="ZybSccJEuu_POBzUD3_6-37" value="customer_key" style="rounded=1;whiteSpace=wrap;html=1;fillColor=none;strokeColor=default;" vertex="1" parent="1">
          <mxGeometry x="320" y="90" width="120" height="20" as="geometry" />
        </mxCell>
        <mxCell id="ZybSccJEuu_POBzUD3_6-38" value="order_date" style="rounded=1;whiteSpace=wrap;html=1;fillColor=none;strokeColor=default;" vertex="1" parent="1">
          <mxGeometry x="320" y="130" width="120" height="20" as="geometry" />
        </mxCell>
        <mxCell id="ZybSccJEuu_POBzUD3_6-39" value="shipping_date" style="rounded=1;whiteSpace=wrap;html=1;fillColor=none;strokeColor=default;" vertex="1" parent="1">
          <mxGeometry x="320" y="170" width="120" height="20" as="geometry" />
        </mxCell>
        <mxCell id="ZybSccJEuu_POBzUD3_6-40" value="due_date" style="rounded=1;whiteSpace=wrap;html=1;fillColor=none;strokeColor=default;" vertex="1" parent="1">
          <mxGeometry x="320" y="210" width="120" height="20" as="geometry" />
        </mxCell>
        <mxCell id="ZybSccJEuu_POBzUD3_6-41" value="sales_amount" style="rounded=1;whiteSpace=wrap;html=1;fillColor=none;strokeColor=default;" vertex="1" parent="1">
          <mxGeometry x="320" y="250" width="120" height="20" as="geometry" />
        </mxCell>
        <mxCell id="ZybSccJEuu_POBzUD3_6-42" value="quantity" style="rounded=1;whiteSpace=wrap;html=1;fillColor=none;strokeColor=default;" vertex="1" parent="1">
          <mxGeometry x="320" y="290" width="120" height="20" as="geometry" />
        </mxCell>
        <mxCell id="ZybSccJEuu_POBzUD3_6-43" value="price" style="rounded=1;whiteSpace=wrap;html=1;fillColor=none;strokeColor=default;" vertex="1" parent="1">
          <mxGeometry x="320" y="330" width="120" height="20" as="geometry" />
        </mxCell>
        <mxCell id="ZybSccJEuu_POBzUD3_6-44" value="gold.fact_sales" style="rounded=1;whiteSpace=wrap;html=1;fillColor=none;strokeColor=default;" vertex="1" parent="1">
          <mxGeometry x="320" y="-90" width="120" height="30" as="geometry" />
        </mxCell>
        <mxCell id="ZybSccJEuu_POBzUD3_6-46" value="primarykey" style="text;html=1;whiteSpace=wrap;strokeColor=none;fillColor=none;align=center;verticalAlign=middle;rounded=0;" vertex="1" parent="1">
          <mxGeometry x="20" y="-25" width="60" height="30" as="geometry" />
        </mxCell>
        <mxCell id="ZybSccJEuu_POBzUD3_6-48" value="PK" style="text;html=1;whiteSpace=wrap;strokeColor=none;fillColor=none;align=center;verticalAlign=middle;rounded=0;" vertex="1" parent="1">
          <mxGeometry x="460" y="-20" width="60" height="30" as="geometry" />
        </mxCell>
        <mxCell id="ZybSccJEuu_POBzUD3_6-51" value="FK&lt;span style=&quot;color: rgba(0, 0, 0, 0); font-family: monospace; font-size: 0px; text-align: start; text-wrap-mode: nowrap;&quot;&gt;%3CmxGraphModel%3E%3Croot%3E%3CmxCell%20id%3D%220%22%2F%3E%3CmxCell%20id%3D%221%22%20parent%3D%220%22%2F%3E%3CmxCell%20id%3D%222%22%20value%3D%22%22%20style%3D%22rounded%3D1%3BwhiteSpace%3Dwrap%3Bhtml%3D1%3BfillColor%3Dnone%3B%22%20vertex%3D%221%22%20parent%3D%221%22%3E%3CmxGeometry%20x%3D%22340%22%20y%3D%22-70%22%20width%3D%22120%22%20height%3D%22430%22%20as%3D%22geometry%22%2F%3E%3C%2FmxCell%3E%3CmxCell%20id%3D%223%22%20value%3D%22customer_key%22%20style%3D%22rounded%3D1%3BwhiteSpace%3Dwrap%3Bhtml%3D1%3BfillColor%3D%23fff2cc%3BstrokeColor%3D%23d6b656%3B%22%20vertex%3D%221%22%20parent%3D%221%22%3E%3CmxGeometry%20x%3D%22340%22%20y%3D%22-20%22%20width%3D%22120%22%20height%3D%2220%22%20as%3D%22geometry%22%2F%3E%3C%2FmxCell%3E%3CmxCell%20id%3D%224%22%20value%3D%22product_id%22%20style%3D%22rounded%3D1%3BwhiteSpace%3Dwrap%3Bhtml%3D1%3BfillColor%3D%23fff2cc%3BstrokeColor%3D%23d6b656%3B%22%20vertex%3D%221%22%20parent%3D%221%22%3E%3CmxGeometry%20x%3D%22340%22%20y%3D%2240%22%20width%3D%22120%22%20height%3D%2220%22%20as%3D%22geometry%22%2F%3E%3C%2FmxCell%3E%3CmxCell%20id%3D%225%22%20value%3D%22product_name%22%20style%3D%22rounded%3D1%3BwhiteSpace%3Dwrap%3Bhtml%3D1%3BfillColor%3D%23fff2cc%3BstrokeColor%3D%23d6b656%3B%22%20vertex%3D%221%22%20parent%3D%221%22%3E%3CmxGeometry%20x%3D%22340%22%20y%3D%2280%22%20width%3D%22120%22%20height%3D%2220%22%20as%3D%22geometry%22%2F%3E%3C%2FmxCell%3E%3CmxCell%20id%3D%226%22%20value%3D%22category_id%22%20style%3D%22rounded%3D1%3BwhiteSpace%3Dwrap%3Bhtml%3D1%3BfillColor%3D%23fff2cc%3BstrokeColor%3D%23d6b656%3B%22%20vertex%3D%221%22%20parent%3D%221%22%3E%3CmxGeometry%20x%3D%22340%22%20y%3D%22120%22%20width%3D%22120%22%20height%3D%2220%22%20as%3D%22geometry%22%2F%3E%3C%2FmxCell%3E%3CmxCell%20id%3D%227%22%20value%3D%22sybcategory%22%20style%3D%22rounded%3D1%3BwhiteSpace%3Dwrap%3Bhtml%3D1%3BfillColor%3D%23fff2cc%3BstrokeColor%3D%23d6b656%3B%22%20vertex%3D%221%22%20parent%3D%221%22%3E%3CmxGeometry%20x%3D%22340%22%20y%3D%22160%22%20width%3D%22120%22%20height%3D%2220%22%20as%3D%22geometry%22%2F%3E%3C%2FmxCell%3E%3CmxCell%20id%3D%228%22%20value%3D%22mantenance%22%20style%3D%22rounded%3D1%3BwhiteSpace%3Dwrap%3Bhtml%3D1%3BfillColor%3D%23fff2cc%3BstrokeColor%3D%23d6b656%3B%22%20vertex%3D%221%22%20parent%3D%221%22%3E%3CmxGeometry%20x%3D%22340%22%20y%3D%22200%22%20width%3D%22120%22%20height%3D%2220%22%20as%3D%22geometry%22%2F%3E%3C%2FmxCell%3E%3CmxCell%20id%3D%229%22%20value%3D%22cost%22%20style%3D%22rounded%3D1%3BwhiteSpace%3Dwrap%3Bhtml%3D1%3BfillColor%3D%23fff2cc%3BstrokeColor%3D%23d6b656%3B%22%20vertex%3D%221%22%20parent%3D%221%22%3E%3CmxGeometry%20x%3D%22340%22%20y%3D%22240%22%20width%3D%22120%22%20height%3D%2220%22%20as%3D%22geometry%22%2F%3E%3C%2FmxCell%3E%3CmxCell%20id%3D%2210%22%20value%3D%22product_lines%22%20style%3D%22rounded%3D1%3BwhiteSpace%3Dwrap%3Bhtml%3D1%3BfillColor%3D%23fff2cc%3BstrokeColor%3D%23d6b656%3B%22%20vertex%3D%221%22%20parent%3D%221%22%3E%3CmxGeometry%20x%3D%22340%22%20y%3D%22280%22%20width%3D%22120%22%20height%3D%2220%22%20as%3D%22geometry%22%2F%3E%3C%2FmxCell%3E%3CmxCell%20id%3D%2211%22%20value%3D%22start_date%22%20style%3D%22rounded%3D1%3BwhiteSpace%3Dwrap%3Bhtml%3D1%3BfillColor%3D%23fff2cc%3BstrokeColor%3D%23d6b656%3B%22%20vertex%3D%221%22%20parent%3D%221%22%3E%3CmxGeometry%20x%3D%22340%22%20y%3D%22320%22%20width%3D%22120%22%20height%3D%2220%22%20as%3D%22geometry%22%2F%3E%3C%2FmxCell%3E%3CmxCell%20id%3D%2212%22%20value%3D%22gold.dim_customers%22%20style%3D%22rounded%3D1%3BwhiteSpace%3Dwrap%3Bhtml%3D1%3BfillColor%3D%23f8cecc%3BstrokeColor%3D%23b85450%3B%22%20vertex%3D%221%22%20parent%3D%221%22%3E%3CmxGeometry%20x%3D%22340%22%20y%3D%22-90%22%20width%3D%22120%22%20height%3D%2230%22%20as%3D%22geometry%22%2F%3E%3C%2FmxCell%3E%3C%2Froot%3E%3C%2FmxGraphModel%3E&lt;/span&gt;" style="text;html=1;whiteSpace=wrap;strokeColor=none;fillColor=none;align=center;verticalAlign=middle;rounded=0;" vertex="1" parent="1">
          <mxGeometry x="280" y="45" width="60" height="30" as="geometry" />
        </mxCell>
        <mxCell id="ZybSccJEuu_POBzUD3_6-52" value="FK2" style="text;html=1;whiteSpace=wrap;strokeColor=none;fillColor=none;align=center;verticalAlign=middle;rounded=0;" vertex="1" parent="1">
          <mxGeometry x="280" y="85" width="60" height="30" as="geometry" />
        </mxCell>
        <mxCell id="ZybSccJEuu_POBzUD3_6-56" value="" style="edgeStyle=entityRelationEdgeStyle;fontSize=12;html=1;endArrow=ERzeroToMany;startArrow=ERmandOne;rounded=0;exitX=1.033;exitY=0.143;exitDx=0;exitDy=0;exitPerimeter=0;entryX=1;entryY=0.5;entryDx=0;entryDy=0;" edge="1" parent="1" source="ZybSccJEuu_POBzUD3_6-1" target="ZybSccJEuu_POBzUD3_6-52">
          <mxGeometry width="100" height="100" relative="1" as="geometry">
            <mxPoint x="300" y="120" as="sourcePoint" />
            <mxPoint x="400" y="20" as="targetPoint" />
          </mxGeometry>
        </mxCell>
        <mxCell id="ZybSccJEuu_POBzUD3_6-59" value="" style="edgeStyle=entityRelationEdgeStyle;fontSize=12;html=1;endArrow=ERzeroToMany;startArrow=ERmandOne;rounded=0;entryX=0;entryY=0.25;entryDx=0;entryDy=0;" edge="1" parent="1">
          <mxGeometry width="100" height="100" relative="1" as="geometry">
            <mxPoint x="510" y="5" as="sourcePoint" />
            <mxPoint x="450" y="-2.5" as="targetPoint" />
            <Array as="points">
              <mxPoint x="430" />
              <mxPoint x="430" y="8" />
              <mxPoint x="430" y="8" />
            </Array>
          </mxGeometry>
        </mxCell>
        <mxCell id="ZybSccJEuu_POBzUD3_6-60" value="sales data mart" style="text;html=1;whiteSpace=wrap;strokeColor=#b85450;fillColor=#f8cecc;align=center;verticalAlign=middle;rounded=1;glass=0;sketch=1;curveFitting=1;jiggle=2;fillStyle=auto;gradientColor=none;gradientDirection=west;" vertex="1" parent="1">
          <mxGeometry x="30" y="-180" width="170" height="40" as="geometry" />
        </mxCell>
      </root>
    </mxGraphModel>
  </diagram>
</mxfile>
